<svg width="48" height="48" viewBox="0 0 48 48" fill="none" xmlns="http://www.w3.org/2000/svg">
<path fill-rule="evenodd" clip-rule="evenodd" d="M8.40808 33H15.4965C16.245 35.8453 17.3548 38.6173 18.8258 41.2452C14.3939 39.9174 10.6802 36.9278 8.40808 33ZM32.5035 33C31.755 35.8453 30.6452 38.6173 29.1742 41.2452C33.6061 39.9174 37.3198 36.9278 39.5919 33H32.5035ZM24 41.9724C22.0442 39.1808 20.5946 36.1484 19.6514 33H28.3486C27.4054 36.1484 25.9558 39.1808 24 41.9724ZM33.312 29C33.7848 25.6843 33.7848 22.3157 33.312 19H41.2965C41.7545 20.5875 42 22.2651 42 24C42 25.7349 41.7545 27.4125 41.2965 29H33.312ZM32.5035 15H39.5919C37.3198 11.0722 33.6061 8.08261 29.1742 6.75477C30.6453 9.38274 31.755 12.1547 32.5035 15ZM24 6.0276C22.0442 8.81922 20.5946 11.8516 19.6514 15H28.3486C27.4054 11.8516 25.9558 8.81922 24 6.0276ZM29.2661 19H18.7339C18.1999 22.3108 18.1999 25.6892 18.7339 29H29.2661C29.8001 25.6892 29.8001 22.3108 29.2661 19ZM6.70353 29H14.688C14.2152 25.6843 14.2152 22.3157 14.688 19H6.70353C6.24545 20.5875 6 22.2651 6 24C6 25.7349 6.24546 27.4125 6.70353 29ZM15.4965 15H8.40808C10.6802 11.0722 14.3939 8.08261 18.8258 6.75477C17.3547 9.38274 16.245 12.1547 15.4965 15ZM24 46C36.1503 46 46 36.1503 46 24C46 11.8497 36.1503 2 24 2C11.8497 2 2 11.8497 2 24C2 36.1503 11.8497 46 24 46Z" fill="black"/>
</svg>
