<svg width="26" height="27" viewBox="0 0 26 27" fill="none" xmlns="http://www.w3.org/2000/svg">
<circle cx="13" cy="13.5" r="13" fill="url(#paint0_linear_682_10676)"/>
<g filter="url(#filter0_i_682_10676)">
<circle cx="13" cy="13.5" r="10" fill="url(#paint1_linear_682_10676)"/>
</g>
<g filter="url(#filter1_d_682_10676)">
<path d="M12.4451 7.8487C12.649 7.35308 13.351 7.35308 13.5549 7.8487L14.8473 10.9901C14.9398 11.215 15.1589 11.3618 15.4021 11.3618H18.558C19.0916 11.3618 19.3598 12.0062 18.9837 12.3847L16.4691 14.9155C16.3242 15.0613 16.264 15.2712 16.3097 15.4716L17.1175 19.0199C17.2383 19.5503 16.6474 19.9548 16.1966 19.6502L13.3358 17.7176C13.1329 17.5805 12.867 17.5805 12.6641 17.7176L9.80331 19.6502C9.35251 19.9548 8.76163 19.5503 8.88241 19.0199L9.69027 15.4716C9.7359 15.2712 9.67575 15.0613 9.53087 14.9155L7.01633 12.3847C6.64022 12.0062 6.90834 11.3618 7.44195 11.3618H10.5978C10.841 11.3618 11.0602 11.215 11.1527 10.9901L12.4451 7.8487Z" fill="url(#paint2_linear_682_10676)"/>
</g>
<defs>
<filter id="filter0_i_682_10676" x="3" y="3.5" width="20" height="20" filterUnits="userSpaceOnUse" color-interpolation-filters="sRGB">
<feFlood flood-opacity="0" result="BackgroundImageFix"/>
<feBlend mode="normal" in="SourceGraphic" in2="BackgroundImageFix" result="shape"/>
<feColorMatrix in="SourceAlpha" type="matrix" values="0 0 0 0 0 0 0 0 0 0 0 0 0 0 0 0 0 0 127 0" result="hardAlpha"/>
<feOffset/>
<feGaussianBlur stdDeviation="1.5"/>
<feComposite in2="hardAlpha" operator="arithmetic" k2="-1" k3="1"/>
<feColorMatrix type="matrix" values="0 0 0 0 0.964706 0 0 0 0 0.572549 0 0 0 0 0.0156863 0 0 0 1 0"/>
<feBlend mode="normal" in2="shape" result="effect1_innerShadow_682_10676"/>
</filter>
<filter id="filter1_d_682_10676" x="4.84082" y="5.47705" width="16.3184" height="16.2778" filterUnits="userSpaceOnUse" color-interpolation-filters="sRGB">
<feFlood flood-opacity="0" result="BackgroundImageFix"/>
<feColorMatrix in="SourceAlpha" type="matrix" values="0 0 0 0 0 0 0 0 0 0 0 0 0 0 0 0 0 0 127 0" result="hardAlpha"/>
<feOffset/>
<feGaussianBlur stdDeviation="1"/>
<feComposite in2="hardAlpha" operator="out"/>
<feColorMatrix type="matrix" values="0 0 0 0 1 0 0 0 0 0.654902 0 0 0 0 0.0745098 0 0 0 1 0"/>
<feBlend mode="normal" in2="BackgroundImageFix" result="effect1_dropShadow_682_10676"/>
<feBlend mode="normal" in="SourceGraphic" in2="effect1_dropShadow_682_10676" result="shape"/>
</filter>
<linearGradient id="paint0_linear_682_10676" x1="13" y1="0.5" x2="13" y2="26.5" gradientUnits="userSpaceOnUse">
<stop stop-color="#FEF494"/>
<stop offset="1" stop-color="#FFBE0C"/>
</linearGradient>
<linearGradient id="paint1_linear_682_10676" x1="13" y1="9.5" x2="13" y2="23.5" gradientUnits="userSpaceOnUse">
<stop stop-color="#FFC228"/>
<stop offset="1" stop-color="#FF9502"/>
</linearGradient>
<linearGradient id="paint2_linear_682_10676" x1="11.7273" y1="10.9349" x2="14.253" y2="17.9113" gradientUnits="userSpaceOnUse">
<stop stop-color="#FFF8D1"/>
<stop offset="1" stop-color="#FEED8E"/>
</linearGradient>
</defs>
</svg>
